# xmcd CD database file
#
# Track frame offsets:
#	150
#	13360
#	23827
#	40465
#	48420
#	60737
#	71200
#	80250
#	91522
#	107275
#	116880
#	128380
#	140760
#
# Disc length: 2042 seconds
#
# Revision: 1
# Processed by: cddbd v1.4PL0 Copyright (c) Steve Scherf et al.
# Submitted via: CDex 1.40Release
#
DISCID=ac07f80d
DTITLE=Various Artist - Memories Of Hawaii, Vol. I
DYEAR=1900
DGENRE=Native American
TTITLE0=The Kona Inn Kanes - Tiny Bubbles-Pearly Shells
TTITLE1=Buddy Fo - Blue Hawaii
TTITLE2=Melveen Leed - I'll Remember You
TTITLE3=The Entertainers Five - Hawaiian War Chant
TTITLE4=Marlene Sai and The Invitations - Beyond The Reef
TTITLE5=Pat and His Paddlers - One Paddle, Two Paddle
TTITLE6=George Paoa - To You Sweetheart, Aloha
TTITLE7=Kaipo's Happy Hawaiians - Little Brown Gal
TTITLE8=Marlene Sai and Ed Kenny - Ke Kali Nei Au
TTITLE9=Kaipo's Happy Hawaiians - Hukilau Song
TTITLE10=Diamond Head Beach Boys - Sweet Leilani
TTITLE11=Kaipo's Happy Hawaiians - My Little Grass Shack
TTITLE12=Diamond Head Beach Boys - Song Of The Islands
EXTD=ID3G: 64
EXTT0=
EXTT1=
EXTT2=
EXTT3=
EXTT4=
EXTT5=
EXTT6=
EXTT7=
EXTT8=
EXTT9=
EXTT10=
EXTT11=
EXTT12=
PLAYORDER=
